<svg width="46" height="9" viewBox="0 0 46 9" fill="none" xmlns="http://www.w3.org/2000/svg">
<path d="M27.7372 2.82749C28.2121 2.82749 28.616 2.99615 28.9489 3.33349C29.2863 3.67082 29.4549 4.08361 29.4549 4.57185C29.4549 5.0601 29.2863 5.47289 28.9489 5.81022C28.616 6.14756 28.2121 6.31622 27.7372 6.31622C27.1469 6.31622 26.6986 6.0721 26.3923 5.58385V6.23633H25.9529V1.5758H26.3923V3.55985C26.6986 3.07161 27.1469 2.82749 27.7372 2.82749ZM26.7718 5.51062C27.0248 5.76362 27.3355 5.89012 27.7039 5.89012C28.0723 5.89012 28.383 5.76362 28.636 5.51062C28.889 5.25318 29.0155 4.94026 29.0155 4.57185C29.0155 4.20345 28.889 3.89275 28.636 3.63975C28.383 3.38231 28.0723 3.25359 27.7039 3.25359C27.3355 3.25359 27.0248 3.38231 26.7718 3.63975C26.5188 3.89275 26.3923 4.20345 26.3923 4.57185C26.3923 4.94026 26.5188 5.25318 26.7718 5.51062ZM31.7235 2.82749C32.2162 2.82749 32.6135 3.00281 32.9153 3.35346C33.2216 3.69967 33.3747 4.11024 33.3747 4.58517C33.3747 4.63399 33.3703 4.70279 33.3614 4.79156H30.4386C30.483 5.1289 30.625 5.39743 30.8647 5.59717C31.1088 5.79247 31.4084 5.89012 31.7635 5.89012C32.0165 5.89012 32.234 5.83907 32.416 5.73699C32.6024 5.63046 32.7422 5.49286 32.8354 5.3242L33.2216 5.55056C33.0751 5.78581 32.8754 5.97223 32.6224 6.10983C32.3694 6.24742 32.0809 6.31622 31.7568 6.31622C31.2331 6.31622 30.807 6.15199 30.4785 5.82354C30.1501 5.49508 29.9858 5.07785 29.9858 4.57185C29.9858 4.07473 30.1478 3.65972 30.4719 3.32683C30.7959 2.99393 31.2131 2.82749 31.7235 2.82749ZM31.7235 3.25359C31.3773 3.25359 31.0866 3.3579 30.8514 3.56651C30.6206 3.77069 30.483 4.037 30.4386 4.36546H32.922C32.8776 4.01481 32.7422 3.74184 32.5158 3.54654C32.2895 3.35124 32.0254 3.25359 31.7235 3.25359ZM35.7405 3.33349H34.7818V5.35083C34.7818 5.53281 34.8173 5.66375 34.8883 5.74364C34.9593 5.8191 35.0658 5.85905 35.2079 5.86349C35.3499 5.86349 35.5274 5.85905 35.7405 5.85017V6.23633C35.2744 6.30735 34.9238 6.27406 34.6885 6.13646C34.4577 5.99886 34.3423 5.73699 34.3423 5.35083V3.33349H33.6433V2.90738H34.3423V2.10843L34.7818 1.97528V2.90738H35.7405V3.33349ZM39.1342 2.90738H39.5736V6.23633H39.1342V5.58385C38.8279 6.0721 38.3796 6.31622 37.7893 6.31622C37.3144 6.31622 36.9082 6.14756 36.5709 5.81022C36.238 5.47289 36.0716 5.0601 36.0716 4.57185C36.0716 4.08361 36.238 3.67082 36.5709 3.33349C36.9082 2.99615 37.3144 2.82749 37.7893 2.82749C38.3796 2.82749 38.8279 3.07161 39.1342 3.55985V2.90738ZM36.8905 5.51062C37.1435 5.76362 37.4542 5.89012 37.8226 5.89012C38.191 5.89012 38.5017 5.76362 38.7547 5.51062C39.0077 5.25318 39.1342 4.94026 39.1342 4.57185C39.1342 4.20345 39.0077 3.89275 38.7547 3.63975C38.5017 3.38231 38.191 3.25359 37.8226 3.25359C37.4542 3.25359 37.1435 3.38231 36.8905 3.63975C36.6375 3.89275 36.511 4.20345 36.511 4.57185C36.511 4.94026 36.6375 5.25318 36.8905 5.51062Z" fill="#1E2026"/>
</svg>
