<svg width="89" height="24" viewBox="0 0 89 24" fill="none" xmlns="http://www.w3.org/2000/svg">
<rect width="89" height="24" rx="12" fill="#FCFBFD"/>
<mask id="mask0_2_84" style="mask-type:alpha" maskUnits="userSpaceOnUse" x="4" y="4" width="16" height="16">
<rect x="4" y="4" width="16" height="16" fill="#D9D9D9"/>
</mask>
<g mask="url(#mask0_2_84)">
<path d="M11.3337 12.6666V16.3333H10.3337V13.6666H7.66699V12.6666H11.3337ZM13.667 7.66663V10.3333H16.3337V11.3333H12.667V7.66663H13.667Z" fill="#5B6170"/>
</g>
<path d="M26.8516 16.1465C26.2383 16.1465 25.6641 16.0371 25.1289 15.8184C24.5938 15.5996 24.1367 15.3008 23.7578 14.9219C23.3789 14.5391 23.0801 14.0781 22.8613 13.5391C22.6426 13 22.5332 12.4219 22.5332 11.8047C22.5332 11.1875 22.6426 10.6094 22.8613 10.0703C23.0801 9.52734 23.3789 9.06445 23.7578 8.68164C24.1367 8.29883 24.5938 7.99805 25.1289 7.7793C25.6641 7.56055 26.2383 7.45117 26.8516 7.45117C27.8438 7.45117 28.707 7.73633 29.4414 8.30664C30.1758 8.87695 30.6523 9.63477 30.8711 10.5801H29.4766C29.2773 10.0215 28.9453 9.58398 28.4805 9.26758C28.0156 8.94727 27.4727 8.78711 26.8516 8.78711C26.0078 8.78711 25.3105 9.07227 24.7598 9.64258C24.209 10.209 23.9336 10.9297 23.9336 11.8047C23.9336 12.6797 24.209 13.4004 24.7598 13.9668C25.3105 14.5332 26.0078 14.8164 26.8516 14.8164C27.4922 14.8164 28.0469 14.6465 28.5156 14.3066C28.9844 13.9668 29.3145 13.498 29.5059 12.9004H30.9062C30.6875 13.8887 30.209 14.6777 29.4707 15.2676C28.7363 15.8535 27.8633 16.1465 26.8516 16.1465ZM37 15.7188C36.4727 16.0117 35.8828 16.1582 35.2305 16.1582C34.5781 16.1582 33.9883 16.0117 33.4609 15.7188C32.9336 15.4219 32.5195 15.0156 32.2188 14.5C31.918 13.9805 31.7676 13.4004 31.7676 12.7598C31.7676 12.1152 31.918 11.5352 32.2188 11.0195C32.5195 10.5 32.9336 10.0938 33.4609 9.80078C33.9883 9.50781 34.5781 9.36133 35.2305 9.36133C35.8828 9.36133 36.4727 9.50781 37 9.80078C37.5273 10.0938 37.9414 10.5 38.2422 11.0195C38.543 11.5391 38.6934 12.1191 38.6934 12.7598C38.6934 13.4004 38.543 13.9805 38.2422 14.5C37.9414 15.0156 37.5273 15.4219 37 15.7188ZM33.7129 14.2891C34.1113 14.6875 34.6172 14.8867 35.2305 14.8867C35.8438 14.8867 36.3477 14.6875 36.7422 14.2891C37.1406 13.8906 37.3398 13.3809 37.3398 12.7598C37.3398 12.1387 37.1406 11.6289 36.7422 11.2305C36.3477 10.832 35.8438 10.6328 35.2305 10.6328C34.6172 10.6328 34.1113 10.832 33.7129 11.2305C33.3184 11.6289 33.1211 12.1387 33.1211 12.7598C33.1211 13.3809 33.3184 13.8906 33.7129 14.2891ZM40.1172 16V7.19922H41.4473V16H40.1172ZM43.3398 16V7.19922H44.6699V16H43.3398ZM51.9883 9.51367L53.0137 9.51953V15.9941H51.9414L51.8125 15.209C51.5156 15.5098 51.166 15.7441 50.7637 15.9121C50.3613 16.0762 49.9277 16.1582 49.4629 16.1582C48.8301 16.1582 48.2559 16.0117 47.7402 15.7188C47.2246 15.4219 46.8203 15.0137 46.5273 14.4941C46.2344 13.9707 46.0879 13.3906 46.0879 12.7539C46.0879 12.1133 46.2344 11.5352 46.5273 11.0195C46.8203 10.5 47.2246 10.0938 47.7402 9.80078C48.2559 9.50781 48.8301 9.36133 49.4629 9.36133C49.9316 9.36133 50.3691 9.44531 50.7754 9.61328C51.1816 9.78125 51.5332 10.0195 51.8301 10.3281L51.9883 9.51367ZM48.0449 14.2773C48.4473 14.6797 48.9531 14.8809 49.5625 14.8809C50.1719 14.8809 50.6758 14.6797 51.0742 14.2773C51.4766 13.8711 51.6777 13.3633 51.6777 12.7539C51.6777 12.1445 51.4766 11.6387 51.0742 11.2363C50.6758 10.834 50.1719 10.6328 49.5625 10.6328C48.9531 10.6328 48.4473 10.8359 48.0449 11.2422C47.6426 11.6445 47.4414 12.1484 47.4414 12.7539C47.4414 13.3633 47.6426 13.8711 48.0449 14.2773ZM58.4043 9.36133C59.041 9.36133 59.6152 9.50781 60.127 9.80078C60.6387 10.0938 61.0371 10.5 61.3223 11.0195C61.6113 11.5391 61.7559 12.1191 61.7559 12.7598C61.7559 13.7324 61.4375 14.543 60.8008 15.1914C60.168 15.8398 59.3691 16.1641 58.4043 16.1641C57.5723 16.1641 56.8535 15.9023 56.248 15.3789V18.3203H54.918V9.51953H55.8145L56.0664 10.3164C56.3633 10.0117 56.7109 9.77734 57.1094 9.61328C57.5117 9.44531 57.9434 9.36133 58.4043 9.36133ZM56.7754 14.2773C57.1816 14.6836 57.6895 14.8867 58.2988 14.8867C58.9082 14.8867 59.4121 14.6855 59.8105 14.2832C60.209 13.877 60.4082 13.3691 60.4082 12.7598C60.4082 12.1504 60.209 11.6445 59.8105 11.2422C59.4121 10.8359 58.9082 10.6328 58.2988 10.6328C57.6895 10.6328 57.1816 10.8359 56.7754 11.2422C56.373 11.6484 56.1719 12.1543 56.1719 12.7598C56.1719 13.3652 56.373 13.8711 56.7754 14.2773ZM67.252 15.5957C66.7715 15.9707 66.1367 16.1582 65.3477 16.1582C64.5586 16.1582 63.9238 15.957 63.4434 15.5547C62.9668 15.1523 62.7188 14.6152 62.6992 13.9434H64C64.0156 14.2754 64.1504 14.5332 64.4043 14.7168C64.6621 14.8965 64.9922 14.9863 65.3945 14.9863C65.7617 14.9863 66.0645 14.9121 66.3027 14.7637C66.541 14.6113 66.6602 14.4043 66.6602 14.1426C66.6602 14.0254 66.6309 13.9199 66.5723 13.8262C66.5176 13.7324 66.4492 13.6582 66.3672 13.6035C66.2891 13.5449 66.1758 13.4922 66.0273 13.4453C65.8828 13.3984 65.752 13.3633 65.6348 13.3398C65.5215 13.3164 65.3672 13.2871 65.1719 13.252C64.9727 13.2168 64.8145 13.1875 64.6973 13.1641C64.5801 13.1406 64.4277 13.1035 64.2402 13.0527C64.0527 12.998 63.9004 12.9414 63.7832 12.8828C63.6699 12.8242 63.5449 12.7461 63.4082 12.6484C63.2715 12.5508 63.1641 12.4434 63.0859 12.3262C63.0117 12.2051 62.9473 12.0586 62.8926 11.8867C62.8418 11.7148 62.8164 11.5254 62.8164 11.3184C62.8164 10.7363 63.0469 10.2656 63.5078 9.90625C63.9727 9.54297 64.5801 9.36133 65.3301 9.36133C66.0801 9.36133 66.6816 9.55078 67.1348 9.92969C67.5918 10.3047 67.8262 10.8066 67.8379 11.4355H66.5781C66.5664 11.1309 66.4492 10.8984 66.2266 10.7383C66.0039 10.5742 65.6953 10.4922 65.3008 10.4922C64.9336 10.4922 64.6426 10.5645 64.4277 10.709C64.2129 10.8496 64.1055 11.0391 64.1055 11.2773C64.1055 11.3711 64.1211 11.4551 64.1523 11.5293C64.1836 11.5996 64.2363 11.6621 64.3105 11.7168C64.3887 11.7715 64.4609 11.8164 64.5273 11.8516C64.5977 11.8867 64.6992 11.9199 64.832 11.9512C64.9688 11.9824 65.0801 12.0078 65.166 12.0273C65.252 12.043 65.3789 12.0645 65.5469 12.0918C66.1797 12.1973 66.6348 12.3086 66.9121 12.4258C67.5762 12.7109 67.9277 13.2129 67.9668 13.9316C67.9707 13.9785 67.9727 14.0293 67.9727 14.084C67.9727 14.7129 67.7324 15.2168 67.252 15.5957ZM75.5605 12.7773C75.5605 12.9023 75.5508 13.0469 75.5312 13.2109H70.2695C70.3516 13.7344 70.5703 14.1484 70.9258 14.4531C71.2812 14.7578 71.7246 14.9102 72.2559 14.9102C72.6387 14.9102 72.9805 14.8262 73.2812 14.6582C73.5859 14.4902 73.8242 14.2578 73.9961 13.9609H75.4023C75.1445 14.6445 74.7363 15.1816 74.1777 15.5723C73.6191 15.9629 72.9785 16.1582 72.2559 16.1582C71.3105 16.1582 70.5195 15.834 69.8828 15.1855C69.2461 14.5332 68.9277 13.7246 68.9277 12.7598C68.9277 12.123 69.0723 11.5449 69.3613 11.0254C69.6504 10.5059 70.0488 10.0996 70.5566 9.80664C71.0645 9.50977 71.6309 9.36133 72.2559 9.36133C72.9004 9.36133 73.4766 9.51562 73.9844 9.82422C74.4922 10.1289 74.8809 10.541 75.1504 11.0605C75.4238 11.5762 75.5605 12.1484 75.5605 12.7773ZM72.2559 10.5625C71.7598 10.5625 71.3379 10.7031 70.9902 10.9844C70.6426 11.2656 70.4141 11.6484 70.3047 12.1328H74.2246C74.1035 11.6406 73.8672 11.2559 73.5156 10.9785C73.168 10.7012 72.748 10.5625 72.2559 10.5625Z" fill="#5B6170"/>
</svg>
