<svg width="15" height="15" viewBox="0 0 15 15" fill="none" xmlns="http://www.w3.org/2000/svg">
<path d="M6.03959 3.46953L5.88858 3.41035L5.7373 3.46884L4.52713 3.93673L5.00467 2.74237L5.06414 2.59363L5.00865 2.44336L4.60569 1.35205L5.68461 1.7603L5.83597 1.81757L5.98631 1.75766L7.18307 1.28077L6.71585 2.49336L6.65696 2.64619L6.7179 2.79821L7.1636 3.91002L6.03959 3.46953ZM13.0337 10.4675L12.8837 10.4114L12.7347 10.4703L11.5444 10.941L12.0182 9.75592L12.0798 9.60201L12.0188 9.44788L11.5715 8.31788L12.6893 8.77037L12.8444 8.83316L12.9999 8.77122L14.1874 8.29802L13.7173 9.49077L13.658 9.6413L13.7158 9.79242L14.1309 10.8773L13.0337 10.4675ZM4.99688 12.6876L4.85199 12.6356L4.70806 12.6902L1.60829 13.8673L2.78537 10.7675L2.83987 10.624L2.78823 10.4795L1.682 7.38245L4.78894 8.48053L4.93236 8.53123L5.07471 8.47758L8.1611 7.3145L6.99802 10.4009L6.94421 10.5437L6.99533 10.6874L8.10357 13.804L4.99688 12.6876Z" fill="#98A1BB" stroke="#98A1BB" stroke-width="0.833333"/>
</svg>
