<svg width="16" height="16" viewBox="0 0 16 16" fill="none" xmlns="http://www.w3.org/2000/svg">
<path d="M14.2855 15.1476L9.0515 9.91339C8.63483 10.2574 8.15566 10.5267 7.614 10.7211C7.07233 10.9155 6.51198 11.0128 5.93296 11.0128C4.50865 11.0128 3.30323 10.5196 2.31671 9.53339C1.33018 8.54714 0.836914 7.342 0.836914 5.91797C0.836914 4.49408 1.33004 3.28853 2.31629 2.3013C3.30254 1.31422 4.50768 0.820679 5.93171 0.820679C7.35559 0.820679 8.56115 1.31394 9.54837 2.30047C10.5355 3.287 11.029 4.49241 11.029 5.91672C11.029 6.51186 10.9291 7.08026 10.7294 7.62193C10.5296 8.1636 10.263 8.63471 9.92962 9.03526L15.1636 14.2692L14.2855 15.1476ZM5.93296 9.76297C7.00671 9.76297 7.91615 9.39033 8.66129 8.64505C9.40657 7.89991 9.77921 6.99047 9.77921 5.91672C9.77921 4.84297 9.40657 3.93353 8.66129 3.18839C7.91615 2.44311 7.00671 2.07047 5.93296 2.07047C4.85921 2.07047 3.94976 2.44311 3.20462 3.18839C2.45934 3.93353 2.08671 4.84297 2.08671 5.91672C2.08671 6.99047 2.45934 7.89991 3.20462 8.64505C3.94976 9.39033 4.85921 9.76297 5.93296 9.76297ZM3.94587 6.54172V5.29172H7.92004V6.54172H3.94587Z" fill="#5B6170"/>
</svg>
